<svg preserveAspectRatio="none" width="100%" height="100%" overflow="visible" style="display: block;" viewBox="0 0 16 14" fill="none" xmlns="http://www.w3.org/2000/svg" color="#7D8394">
<g id="icon">
<path d="M11.707 4.70703L9.93262 6.48242C9.97671 6.64749 10 6.82103 10 7C10 8.10457 9.10457 9 8 9C7.82103 9 7.64749 8.97671 7.48242 8.93262L5.70703 10.707L4.29297 9.29297L6.06738 7.51758C6.02329 7.35251 6 7.17897 6 7C6 5.89543 6.89543 5 8 5C8.17897 5 8.35251 5.02329 8.51758 5.06738L10.293 3.29297L11.707 4.70703Z" fill="currentColor"/>
<path fill-rule="evenodd" clip-rule="evenodd" d="M16 14H0V0H16V14ZM2 12H14V2H2V12Z" fill="currentColor"/>
</g>
</svg>
