<svg preserveAspectRatio="none" width="100%" height="100%" overflow="visible" style="display: block;" viewBox="0 0 15.9609 16" fill="none" xmlns="http://www.w3.org/2000/svg" color="#7D8394">
<g id="icon">
<path d="M0.114733 6.43077C0.29671 5.51579 0.634739 4.65703 1.09991 3.88341L2.81515 4.91256C2.46628 5.49278 2.21275 6.13684 2.07627 6.82308L0.114733 6.43077Z" fill="currentColor"/>
<path d="M0 8.79609C0.0868158 9.67486 0.31583 10.5119 0.663715 11.2837L2.48801 10.4628C2.22709 9.88389 2.05533 9.25615 1.99022 8.59707L0 8.79609Z" fill="currentColor"/>
<path d="M7.96089 16C5.60046 16 3.4788 14.9777 2.01448 13.3518L3.50108 12.0138C4.59932 13.2333 6.19057 14 7.96089 14C11.2746 14 13.9609 11.3137 13.9609 8C13.9609 4.68629 11.2746 2 7.96089 2V0C12.3792 0 15.9609 3.58172 15.9609 8C15.9609 12.4183 12.3792 16 7.96089 16Z" fill="currentColor"/>
<path d="M5.73195 2.42766C5.07076 2.69237 4.46765 3.07136 3.94706 3.5402L2.60912 2.0536C3.30324 1.42848 4.10738 0.923167 4.98897 0.570211L5.73195 2.42766Z" fill="currentColor"/>
<path d="M6.96089 4V7.58579L5.25378 9.29289L6.668 10.7071L8.96089 8.41421V4H6.96089Z" fill="currentColor"/>
</g>
</svg>
