<svg preserveAspectRatio="none" width="100%" height="100%" overflow="visible" style="display: block;" viewBox="0 0 14 16" fill="none" xmlns="http://www.w3.org/2000/svg" color="#7D8394">
<path id="icon" fill-rule="evenodd" clip-rule="evenodd" d="M14 16H0V11C0 8.20076 1.64326 5.78493 4.01758 4.66504C3.38492 3.95753 3 3.02381 3 2V0H11V2C11 3.02381 10.6151 3.95753 9.98242 4.66504C12.3567 5.78493 14 8.20076 14 11V16ZM12 14V11C12 8.23858 9.76142 6 7 6C4.23858 6 2 8.23858 2 11V14H12ZM5 2C5 3.10457 5.89543 4 7 4C8.10457 4 9 3.10457 9 2H5Z" fill="currentColor"/>
</svg>
