<svg preserveAspectRatio="none" width="100%" height="100%" overflow="visible" style="display: block;" viewBox="0 0 18 18" fill="none" xmlns="http://www.w3.org/2000/svg" color="#7D8394">
<path id="icon" fill-rule="evenodd" clip-rule="evenodd" d="M9 0C4.02944 0 0 4.02944 0 9C0 13.9706 4.02944 18 9 18C13.9706 18 18 13.9706 18 9C18 4.02944 13.9706 0 9 0ZM2.07089 8C2.55612 4.60771 5.47353 2 9 2C12.866 2 16 5.13401 16 9C16 12.866 12.866 16 9 16C8.66048 16 8.3266 15.9758 8 15.9291V13H11V11H8V10H9C10.6569 10 12 8.65685 12 7C12 5.34315 10.6569 4 9 4H6V8H2.07089ZM2.07089 10C2.1198 10.3419 2.19342 10.6759 2.28988 11H6V10H2.07089ZM3.25469 13C3.94873 13.995 4.89464 14.8013 6 15.3264V13H3.25469ZM8 8H9C9.55228 8 10 7.55229 10 7C10 6.44772 9.55228 6 9 6H8V8Z" fill="currentColor"/>
</svg>
