<svg preserveAspectRatio="none" width="100%" height="100%" overflow="visible" style="display: block;" viewBox="0 0 20 12" fill="none" xmlns="http://www.w3.org/2000/svg" color="#7D8394">
<g id="icon">
<path d="M2 8C2 6.50144 2.76393 4.99542 4.24998 3.8396C5.74187 2.67924 7.80812 2 10 2C12.1919 2 14.2581 2.67924 15.75 3.83961C17.2361 4.99542 18 6.50144 18 8L20 8C20 5.78553 18.8675 3.73059 16.9779 2.2609C15.0941 0.795752 12.582 0 10 0C7.41798 0 4.90586 0.795751 3.0221 2.2609C1.1325 3.73059 0 5.78553 0 8H2Z" fill="currentColor"/>
<path d="M10 4C7.79086 4 6 5.79086 6 8C6 10.2091 7.79086 12 10 12C12.2091 12 14 10.2091 14 8C14 5.79086 12.2091 4 10 4ZM8 8C8 6.89543 8.89543 6 10 6C11.1046 6 12 6.89543 12 8C12 9.10457 11.1046 10 10 10C8.89543 10 8 9.10457 8 8Z" fill="currentColor"/>
</g>
</svg>
