<svg preserveAspectRatio="none" width="100%" height="100%" overflow="visible" style="display: block;" viewBox="0 0 16 16" fill="none" xmlns="http://www.w3.org/2000/svg" color="#7D8394">
<g id="icon">
<path d="M3 2C3 2.26264 3.05183 2.52297 3.15234 2.76562C3.25285 3.00817 3.40029 3.22841 3.58594 3.41406C3.77159 3.59971 3.99182 3.74715 4.23438 3.84766C4.47703 3.94817 4.73736 4 5 4V6C4.47483 6 3.95494 5.89624 3.46973 5.69531C2.98442 5.49429 2.54331 5.19956 2.17188 4.82812C2.11271 4.76896 2.0552 4.7081 2 4.64551V7C2 7.39397 2.07775 7.78446 2.22852 8.14844C2.37928 8.51226 2.60043 8.84262 2.87891 9.12109C3.15738 9.39957 3.48774 9.62072 3.85156 9.77148C4.21554 9.92225 4.60603 10 5 10H7.28125L6.28125 14H9.71875L8.71875 10H11C11.394 10 11.7845 9.92225 12.1484 9.77148C12.5123 9.62072 12.8426 9.39957 13.1211 9.12109C13.3996 8.84262 13.6207 8.51226 13.7715 8.14844C13.9222 7.78446 14 7.39397 14 7V4.64551C13.9448 4.7081 13.8873 4.76896 13.8281 4.82812C13.4567 5.19956 13.0156 5.49429 12.5303 5.69531C12.0451 5.89624 11.5252 6 11 6V4C11.2626 4 11.523 3.94817 11.7656 3.84766C12.0082 3.74715 12.2284 3.59971 12.4141 3.41406C12.5997 3.22841 12.7471 3.00817 12.8477 2.76562C12.9482 2.52297 13 2.26264 13 2H16V7C16 7.65654 15.8704 8.30651 15.6191 8.91309C15.3679 9.51971 14.9994 10.0709 14.5352 10.5352C14.0709 10.9994 13.5197 11.3679 12.9131 11.6191C12.3927 11.8347 11.8404 11.9608 11.2793 11.9922L12.2812 16H3.71875L4.7207 11.9922C4.15964 11.9608 3.60732 11.8347 3.08691 11.6191C2.48029 11.3679 1.92914 10.9994 1.46484 10.5352C1.00055 10.0709 0.632132 9.51971 0.380859 8.91309C0.129638 8.30651 6.26071e-08 7.65654 0 7V2H3Z" fill="currentColor"/>
<path d="M6 0C6.39397 0 6.78446 0.0777515 7.14844 0.228516C7.46072 0.357916 7.74863 0.538865 8 0.763672C8.25137 0.538865 8.53928 0.357916 8.85156 0.228516C9.21554 0.0777517 9.60603 1.25227e-07 10 0H11V2H10C9.86868 2 9.73851 2.02592 9.61719 2.07617C9.49591 2.12643 9.3858 2.20014 9.29297 2.29297C9.20014 2.38579 9.12643 2.49591 9.07617 2.61719C9.02592 2.73851 9 2.86868 9 3V6H7V3C7 2.86868 6.97408 2.73851 6.92383 2.61719C6.87357 2.49591 6.79986 2.38579 6.70703 2.29297C6.61421 2.20014 6.50409 2.12643 6.38281 2.07617C6.26149 2.02592 6.13132 2 6 2H5V0H6Z" fill="currentColor"/>
</g>
</svg>
