<svg preserveAspectRatio="none" width="100%" height="100%" overflow="visible" style="display: block;" viewBox="0 0 20 17.9961" fill="none" xmlns="http://www.w3.org/2000/svg" color="#7D8394">
<path id="icon" d="M17.4863 17.9961H2.52246C1.01074 17.9961 0 16.8359 0 15.4736C0 15.0517 0.105469 14.6299 0.333984 14.2343L7.81017 1.26562C8.29356 0.430664 9.13733 0 9.98987 0C10.8424 0 11.6774 0.421875 12.1608 1.26562L19.666 14.2256C19.8945 14.6211 20 15.0517 20 15.4736C20 16.8359 18.9893 17.9961 17.4863 17.9961ZM2.1709 15.2715C2.1709 15.6582 2.45215 16.0097 2.88281 16.0097H17.1172C17.5391 16.0097 17.8291 15.6582 17.8291 15.2715C17.8291 15.166 17.8027 15.0342 17.7412 14.9111L10.6051 2.51367C10.4733 2.27637 10.2272 2.1709 9.98987 2.1709C9.75257 2.1709 9.49768 2.27637 9.37464 2.50488L2.25 14.9023C2.18848 15.0254 2.1709 15.166 2.1709 15.2715ZM9.99219 10.9961C9.4399 10.9961 8.99219 10.5484 8.99219 9.99609L8.99219 5.99609H10.9922L10.9922 9.99609C10.9922 10.5484 10.5445 10.9961 9.99219 10.9961ZM8.99219 12.9961C8.99219 12.4438 9.4399 11.9961 9.99219 11.9961C10.5445 11.9961 10.9922 12.4438 10.9922 12.9961C10.9922 13.5484 10.5445 13.9961 9.99219 13.9961C9.4399 13.9961 8.99219 13.5484 8.99219 12.9961Z" fill="currentColor"/>
</svg>
