<svg preserveAspectRatio="none" width="100%" height="100%" overflow="visible" style="display: block;" viewBox="0 0 18 18" fill="none" xmlns="http://www.w3.org/2000/svg" color="#7D8394">
<path id="icon" d="M3 0C1.34315 0 0 1.34315 0 3V15C0 16.6569 1.34315 18 3 18H15C16.6569 18 18 16.6569 18 15V3C18 1.34315 16.6569 0 15 0H3ZM2 3C2 2.44772 2.44772 2 3 2H15C15.5523 2 16 2.44772 16 3V15C16 15.5523 15.5523 16 15 16H3C2.44772 16 2 15.5523 2 15V3ZM8 6C8 6.55229 8.44772 7 9 7C9.55229 7 10 6.55229 10 6C10 5.44771 9.55229 5 9 5C8.44772 5 8 5.44771 8 6ZM9 8C8.44771 8 8 8.44771 8 9V13H10V9C10 8.44771 9.55229 8 9 8Z" fill="currentColor"/>
</svg>
