<svg preserveAspectRatio="none" width="100%" height="100%" overflow="visible" style="display: block;" viewBox="0 0 18 18" fill="none" xmlns="http://www.w3.org/2000/svg" color="#7D8394">
<path id="icon" d="M16 9C16 5.13401 12.866 2 9 2C5.13401 2 2 5.13401 2 9C2 12.866 5.13401 16 9 16C12.866 16 16 12.866 16 9ZM18 9C18 13.9706 13.9706 18 9 18C4.02944 18 0 13.9706 0 9C0 4.02944 4.02944 0 9 0C13.9706 0 18 4.02944 18 9ZM12.5358 11.0713L11.1215 12.4855L9.04931 10.4133L6.8771 12.5855L5.46289 11.1713L7.6351 8.99905L5.46469 6.82864L6.87891 5.41443L9.04931 7.58483L11.1197 5.5144L12.534 6.92861L10.4635 8.99905L12.5358 11.0713Z" fill="currentColor"/>
</svg>
