<svg preserveAspectRatio="none" width="100%" height="100%" overflow="visible" style="display: block;" viewBox="0 0 16 16" fill="none" xmlns="http://www.w3.org/2000/svg" color="#7D8394">
<g id="icon">
<path d="M12 4C12 6.20914 10.2091 8 8 8C5.79086 8 4 6.20914 4 4C4 1.79086 5.79086 0 8 0C10.2091 0 12 1.79086 12 4ZM10 4C10 2.89543 9.10457 2 8 2C6.89543 2 6 2.89543 6 4C6 5.10457 6.89543 6 8 6C9.10457 6 10 5.10457 10 4Z" fill="currentColor"/>
<path d="M5 9C2.23858 9 0 11.2386 0 14V16H2V14C2 12.3431 3.34315 11 5 11H11C12.6569 11 14 12.3431 14 14V16H16V14C16 11.2386 13.7614 9 11 9H5Z" fill="currentColor"/>
</g>
</svg>
