<svg preserveAspectRatio="none" width="100%" height="100%" overflow="visible" style="display: block;" viewBox="0 0 14 14" fill="none" xmlns="http://www.w3.org/2000/svg" color="#7D8394">
<g id="icon">
<path d="M0 3C0 1.34315 1.34315 0 3 0C4.65685 0 6 1.34315 6 3C6 4.65685 4.65685 6 3 6C1.34315 6 0 4.65685 0 3ZM3 2C2.44772 2 2 2.44772 2 3C2 3.55228 2.44772 4 3 4C3.55228 4 4 3.55228 4 3C4 2.44772 3.55228 2 3 2Z" fill="currentColor"/>
<path d="M0.292892 12.2929L12.2929 0.292892L13.7071 1.70711L1.70711 13.7071L0.292892 12.2929Z" fill="currentColor"/>
<path d="M11 8C9.34315 8 8 9.34315 8 11C8 12.6569 9.34315 14 11 14C12.6569 14 14 12.6569 14 11C14 9.34315 12.6569 8 11 8ZM10 11C10 10.4477 10.4477 10 11 10C11.5523 10 12 10.4477 12 11C12 11.5523 11.5523 12 11 12C10.4477 12 10 11.5523 10 11Z" fill="currentColor"/>
</g>
</svg>
