<svg preserveAspectRatio="none" width="100%" height="100%" overflow="visible" style="display: block;" viewBox="0 0 14 14" fill="none" xmlns="http://www.w3.org/2000/svg" color="#7D8394">
<path id="icon" d="M7 0C6.67318 4.45379e-07 6.34531 0.0228952 6.01875 0.0691281C4.49303 0.285136 3.08122 0.99855 2.00227 2.09872C0.923332 3.1989 0.237562 4.62434 0.0513234 6.15399C-0.134916 7.68363 0.188784 9.23198 0.972219 10.5589C1.75565 11.8858 2.95504 12.9172 4.38436 13.493C5.81368 14.0688 7.39305 14.1568 8.87753 13.7435C10.362 13.3302 11.6686 12.4386 12.5947 11.207L10.9962 10.005C10.3347 10.8847 9.40144 11.5216 8.3411 11.8168C7.28076 12.112 6.15263 12.0491 5.13169 11.6378C4.11075 11.2266 3.25404 10.4899 2.69444 9.54208C2.13485 8.59428 1.90363 7.48831 2.03666 6.39571C2.16969 5.30311 2.65953 4.28493 3.4302 3.49909C4.20087 2.71325 5.20931 2.20367 6.29911 2.04938C6.53237 2.01636 6.76657 2 7.00001 2C8.60734 2.00001 9.91061 2.72979 10.5954 4H8V6H14L14 0H12L12 2.47103C10.8934 0.893742 9.07092 4.12576e-06 7 0Z" fill="currentColor"/>
</svg>
