<svg preserveAspectRatio="none" width="100%" height="100%" overflow="visible" style="display: block;" viewBox="0 0 16 16" fill="none" xmlns="http://www.w3.org/2000/svg" color="#7D8394">
<path id="icon" d="M6.92304 0H9.077V2.08296C10.6392 2.32631 12.0113 3.09012 12.9795 4.17581L14.923 3.13392L16 4.86597L14.0579 5.9071C14.3191 6.55873 14.4619 7.26388 14.4619 8C14.4619 8.73608 14.3191 9.4412 14.0579 10.0928L16 11.1339L14.923 12.866L12.9796 11.8241C12.0114 12.9098 10.6392 13.6737 9.077 13.917V16H6.92304V13.917C5.36081 13.6737 3.98864 12.9098 3.02045 11.8241L1.07698 12.866L0 11.1339L1.94211 10.0928C1.68091 9.44119 1.53816 8.73607 1.53816 8C1.53816 7.26389 1.68093 6.55874 1.94215 5.90712L0 4.86597L1.07698 3.13392L3.02052 4.17582C3.98871 3.09013 5.36084 2.32631 6.92304 2.08296V0ZM8.00002 4C5.62083 4 3.69211 5.79086 3.69211 8C3.69211 10.2091 5.62083 12 8.00002 12C10.3792 12 12.3079 10.2091 12.3079 8C12.3079 5.79086 10.3792 4 8.00002 4Z" fill="currentColor"/>
</svg>
