<svg preserveAspectRatio="none" width="100%" height="100%" overflow="visible" style="display: block;" viewBox="0 0 18.0002 17.9041" fill="none" xmlns="http://www.w3.org/2000/svg" color="#7D8394">
<g id="icon">
<path fill-rule="evenodd" clip-rule="evenodd" d="M7.58032 1.76869C8.16652 2.76337 8.50005 4.13819 8.50005 5.8725C8.50005 7.91016 7.69563 9.42327 6.58808 10.5009C7.1475 10.7631 7.63145 10.7274 7.98555 10.515C8.89957 9.96657 9.77895 9.36933 10.5176 8.72557C9.93505 7.75078 9.50005 6.54733 9.50005 5.37247C9.50005 3.6719 10.6013 2.49747 12 2.49747C13.3988 2.49747 14.5 3.6719 14.5 5.37247C14.5 6.70113 13.9478 7.86192 13.172 8.84593C13.2708 8.92708 13.3591 8.98646 13.4329 9.02558C13.6413 8.81827 13.8707 8.59508 14.1052 8.39724C14.3894 8.15747 14.7419 7.90128 15.1489 7.74864C15.5821 7.58618 16.097 7.53563 16.6264 7.75069C17.1281 7.9545 17.5183 8.34712 17.8321 8.81777C18.1385 9.2773 18.0143 9.89817 17.5548 10.2045C17.0952 10.5109 16.4744 10.3867 16.168 9.92717C16.0774 9.7913 16.0032 9.70872 15.9504 9.66039C15.9245 9.63672 15.905 9.62242 15.8923 9.61421L15.8859 9.61019C15.878 9.61217 15.8665 9.61555 15.8512 9.6213C15.7582 9.65617 15.6107 9.74373 15.3949 9.92583C15.1832 10.1044 14.9639 10.3228 14.7072 10.5796C14.0347 11.2521 13.1727 11.1194 12.5992 10.8446C12.3103 10.7062 12.0334 10.5112 11.7748 10.2824C10.9188 11.0201 9.95018 11.6686 9.01454 12.23C7.57239 13.0953 6.05842 12.6677 4.84893 11.7576C3.51479 12.472 2.08997 12.7916 1.07675 12.8696C0.526087 12.9119 0.0453524 12.4999 0.0029941 11.9492C-0.0393642 11.3985 0.372694 10.9178 0.923352 10.8754C1.58981 10.8242 2.49728 10.6327 3.38518 10.2458C2.26587 8.71065 1.50005 6.59511 1.50005 4.3725C1.50005 3.06851 1.8626 1.95735 2.50586 1.16738C3.15263 0.373085 4.09116 -0.0897505 5.10265 0.0145835C6.11392 0.118895 6.98991 0.766845 7.58032 1.76869ZM5.08091 9.17455C4.16894 7.97622 3.50005 6.22338 3.50005 4.3725C3.50005 3.42649 3.7625 2.79158 4.05674 2.43022C4.34746 2.07319 4.65893 1.97943 4.89744 2.00403C5.13618 2.02865 5.51019 2.19517 5.85728 2.78413C6.20858 3.38024 6.50005 4.37255 6.50005 5.8725C6.50005 7.35581 5.91778 8.41203 5.08091 9.17455ZM11.937 7.13581C12.3078 6.54761 12.5 5.9613 12.5 5.37247C12.5 4.95041 12.3767 4.73373 12.288 4.63519C12.1971 4.53423 12.0927 4.49747 12 4.49747C11.9074 4.49747 11.803 4.53423 11.7121 4.63519C11.6234 4.73373 11.5 4.95041 11.5 5.37247C11.5 5.92825 11.6685 6.5513 11.937 7.13581Z" fill="var(--fill-0, black)"/>
<path d="M18 17.9041H0V15.9041H18V17.9041Z" fill="var(--fill-0, black)"/>
</g>
</svg>
