<svg preserveAspectRatio="none" width="100%" height="100%" overflow="visible" style="display: block;" viewBox="0 0 16.8995 18.364" fill="none" xmlns="http://www.w3.org/2000/svg" color="#7D8394">
<path id="icon" d="M2.05025 16.3137C-0.683418 13.58 -0.683417 9.14788 2.05025 6.41421L7 1.46447C8.95262 -0.488156 12.1184 -0.488155 14.0711 1.46447C16.0237 3.41709 16.0237 6.58291 14.0711 8.53553L9.12132 13.4853C7.94975 14.6569 6.05025 14.6569 4.87868 13.4853C3.70711 12.3137 3.70711 10.4142 4.87868 9.24264L9.82843 4.29289L11.2426 5.70711L6.29289 10.6569C5.90237 11.0474 5.90237 11.6805 6.29289 12.0711C6.68342 12.4616 7.31658 12.4616 7.70711 12.0711L12.6569 7.12132C13.8284 5.94975 13.8284 4.05025 12.6569 2.87868C11.4853 1.70711 9.58579 1.70711 8.41421 2.87868L3.46447 7.82843C1.51184 9.78105 1.51184 12.9469 3.46447 14.8995C5.41709 16.8521 8.58291 16.8521 10.5355 14.8995L15.4853 9.94975L16.8995 11.364L11.9497 16.3137C9.21608 19.0474 4.78392 19.0474 2.05025 16.3137Z" fill="currentColor"/>
</svg>
