<svg preserveAspectRatio="none" width="100%" height="100%" overflow="visible" style="display: block;" viewBox="0 0 14 16" fill="none" xmlns="http://www.w3.org/2000/svg" color="#7D8394">
<g id="icon">
<path fill-rule="evenodd" clip-rule="evenodd" d="M13 13C13 14.6569 11.6569 16 10 16H4C2.34315 16 1 14.6569 1 13V6H13V13ZM3 13C3 13.5523 3.44772 14 4 14H10C10.5523 14 11 13.5523 11 13V8H3V13Z" fill="currentColor"/>
<path d="M9 0C9.55228 0 10 0.447715 10 1V2H14V4H0V2H4V1C4 0.447715 4.44772 0 5 0H9Z" fill="currentColor"/>
</g>
</svg>
