<svg preserveAspectRatio="none" width="100%" height="100%" overflow="visible" style="display: block;" viewBox="0 0 16.0071 16.0071" fill="none" xmlns="http://www.w3.org/2000/svg" color="#7D8394">
<g id="icon">
<path d="M10 6H8V4H6V6H4V8H6V10H8V8H10V6Z" fill="currentColor"/>
<path d="M11.1922 12.6064C10.0236 13.4816 8.57234 14 7 14C3.13401 14 0 10.866 0 7C0 3.13401 3.13401 0 7 0C10.866 0 14 3.13401 14 7C14 8.57234 13.4816 10.0236 12.6064 11.1922L16.0071 14.5929L14.5929 16.0071L11.1922 12.6064ZM12 7C12 4.23858 9.76142 2 7 2C4.23858 2 2 4.23858 2 7C2 9.76142 4.23858 12 7 12C9.76142 12 12 9.76142 12 7Z" fill="currentColor"/>
</g>
</svg>
